<?xml version="1.0" encoding="UTF-8" standalone="no"?>
<!-- Generator: Adobe Illustrator 16.0.0, SVG Export Plug-In . SVG Version: 6.00 Build 0)  -->
<svg id="Capa_1" xmlns:rdf="http://www.w3.org/1999/02/22-rdf-syntax-ns#" xmlns="http://www.w3.org/2000/svg" xml:space="preserve" height="100" viewBox="0 0 100 100" width="100" version="1.1" y="0px" x="0px" xmlns:cc="http://creativecommons.org/ns#" xmlns:dc="http://purl.org/dc/elements/1.1/"><metadata id="metadata3131"><rdf:RDF><cc:Work rdf:about=""><dc:format>image/svg+xml</dc:format><dc:type rdf:resource="http://purl.org/dc/dcmitype/StillImage"/><dc:title/></cc:Work></rdf:RDF></metadata><g id="g3093" fill="#f44336" transform="matrix(0.17181245,0,0,0.17181245,2.2384647,2.7936298)"><path id="path3095" fill="#f44336" d="m366.84,77.233-23.117,10.923,20.776-14.919,2.341,3.996zm9.604-28.617-20.516-17.564,17.212,20.8,3.304-3.236zm46.23-48.616-28.54,44.561,4,2.323,24.54-46.884zm-19.707,56.628,59.977-4.992-60.188,0.375,0.211,4.617zm-23.4,8.663c2.755,45.734,53.641,84.799,32.06,131.56-6.655,14.425-19.209,24.024-30.038,35.095l-18.631-16.651-20.877,23.356c-25.038-14.824-54.237-23.356-85.449-23.356-92.834,0-168.09,75.263-168.09,168.08,0,92.834,75.259,168.09,168.09,168.09,92.832,0,168.09-75.256,168.09-168.09,0-36.671-11.78-70.574-31.711-98.201l21.385-23.933-22.331-19.943c1.738-1.883,3.6-3.753,5.598-5.642,13.885-13.134,24.819-26.262,31.031-44.627,15.587-46.036-32.609-82.139-35.222-125.75-0.556-8.883-14.441-8.94-13.902,0.001z"/></g></svg>
