<?xml version="1.0" encoding="UTF-8" standalone="no"?>
<svg id="svg3133" xmlns:rdf="http://www.w3.org/1999/02/22-rdf-syntax-ns#" xmlns="http://www.w3.org/2000/svg" height="100" width="100" version="1.1" xmlns:cc="http://creativecommons.org/ns#" xmlns:dc="http://purl.org/dc/elements/1.1/">
 <metadata id="metadata3159">
  <rdf:RDF>
   <cc:Work rdf:about="">
    <dc:format>image/svg+xml</dc:format>
    <dc:type rdf:resource="http://purl.org/dc/dcmitype/StillImage"/>
    <dc:title/>
   </cc:Work>
  </rdf:RDF>
 </metadata>
<!-- Created with SVG-edit - http://svg-edit.googlecode.com/ -->
 <ellipse id="svg_1" d="M 517,240 C 517,348.8001 428.8001,437 320,437 211.1999,437 123,348.8001 123,240 123,131.1999 211.1999,43 320,43 c 108.8001,0 197,88.1999 197,197 z" cy="240" rx="197" ry="197" transform="matrix(0.2406015,0,0,0.2406015,-26.992481,-7.7443617)" stroke="#ffc107" cx="320" stroke-width="5" fill="#ffc107"/>
 <ellipse id="svg_3" d="m 486,240 c 0,91.67927 -74.32073,166 -166,166 -91.67927,0 -166,-74.32073 -166,-166 0,-91.67927 74.32073,-166 166,-166 91.67927,0 166,74.32073 166,166 z" cy="240" rx="166" ry="166" transform="matrix(0.2406015,0,0,0.2406015,-26.992481,-7.7443617)" stroke="#ffeb3b" cx="320" stroke-width="5" fill="#ffeb3b"/>
 <g id="svg_4" style="text-anchor:middle;" stroke-width="1" font-size="51.62392043999999913px" stroke="#000" stroke-miterlimit="4" stroke-dasharray="none" font-family="Arial" fill="#000">
  <path id="path3002" d="M48.687,66.559c-7.159-0.303-11.326-3.319-12.502-9.049l4.2852-0.93266c0.42011,1.9998,1.294,3.5038,2.6215,4.5121,1.3444,1.0083,3.2097,1.588,5.596,1.7393v-12.503c-2.975-0.739-5.034-1.403-6.176-1.991-1.126-0.588-2.042-1.26-2.748-2.016-0.689-0.773-1.193-1.597-1.512-2.471-0.303-0.873-0.454-1.924-0.454-3.151-0.000002-2.6047,0.94106-4.6381,2.8232-6.1001,1.8989-1.4788,4.5877-2.2938,8.0662-2.4451v-3.3021h3.1257v3.3021c3.1425,0.15128,5.5707,0.86547,7.2848,2.1426,1.714,1.2604,2.924,3.2349,3.6298,5.9236l-4.386,0.83183c-0.337-1.58-1.017-2.807-2.042-3.681-1.025-0.89-2.521-1.428-4.487-1.613v11.217c3.008,0.70582,5.1422,1.3528,6.4026,1.9409,1.2771,0.58818,2.2854,1.252,3.0248,1.9914,0.73938,0.73942,1.3023,1.6133,1.6889,2.6215,0.38648,1.0083,0.57973,2.193,0.57976,3.5542-0.000027,2.7728-1.0167,4.9994-3.05,6.6799-2.0334,1.6805-4.9154,2.6131-8.646,2.798v4.0835h-3.1257v-4.0835m10.485-9.427c0-1.092-0.218-1.991-0.655-2.697s-1.067-1.285-1.891-1.739c-0.823-0.471-2.428-1.017-4.814-1.638v11.797c2.3694-0.15124,4.1843-0.71419,5.4447-1.6889,1.277-0.975,1.915-2.32,1.915-4.034m-17.04-16.485c-0.000007,0.9915,0.21005,1.8317,0.63018,2.5207,0.42011,0.68901,1.0419,1.2688,1.8653,1.7393,0.84022,0.47055,2.193,0.94108,4.0583,1.4116v-10.612c-4.3692,0.2353-6.5538,1.8822-6.5538,4.9406" stroke="#000" stroke-dasharray="none" stroke-miterlimit="4" stroke-width="1" fill="#000"/>
 </g>
</svg>
